# xmcd
#
# Track frame offsets: 
#        150
#        17399
#        35100
#        58725
#        75225
#        104926
#        126525
#        138984
#        160050
#        178876
#
# Disc length: 2601 seconds
#
# Revision: 0
# Processed by: cddbd v1.5.2PL0 Copyright (c) Steve Scherf et al.
# Submitted via: ExactAudioCopyFreeDBPlugin 1.0
#
DISCID=890a270a
DTITLE=Midge Marsden - Burning Rain
DYEAR=1990
DGENRE=New Zealand: Country/Blues
TTITLE0=Burning Rain
TTITLE1=Little Ray
TTITLE2=Elle
TTITLE3=Shufflin' Sugar
TTITLE4=Muscles
TTITLE5=Struck Down by the Blues
TTITLE6=I Wanna Be Loved
TTITLE7=Strangers Girl
TTITLE8=Nadine
TTITLE9=Daylight Robbery
EXTD=
EXTT0=
EXTT1=
EXTT2=
EXTT3=
EXTT4=
EXTT5=
EXTT6=
EXTT7=
EXTT8=
EXTT9=
PLAYORDER=
